<svg width="39" height="39" viewBox="0 0 39 39" fill="none" xmlns="http://www.w3.org/2000/svg">
<path d="M14.6549 11.8594C14.6549 13.5938 14.0612 14.9297 12.8737 15.8672C11.694 16.7969 10.0026 17.2617 7.79948 17.2617H5.78385V24H3.79167V6.86719H8.23307C12.5143 6.86719 14.6549 8.53125 14.6549 11.8594ZM5.78385 15.5508H7.57682C9.34245 15.5508 10.6198 15.2656 11.4089 14.6953C12.1979 14.125 12.5924 13.2109 12.5924 11.9531C12.5924 10.8203 12.2214 9.97656 11.4792 9.42188C10.737 8.86719 9.58073 8.58984 8.01042 8.58984H5.78385V15.5508Z" fill="#A91426"/>
<path d="M18.5977 33.9767L12.7852 18.7892H12.6914C12.8008 19.9924 12.8555 21.4221 12.8555 23.0783V33.9767H11.0156V16.8439H14.0156L19.4414 30.9767H19.5352L25.0078 16.8439H27.9844V33.9767H25.9922V22.9377C25.9922 21.6721 26.0469 20.2971 26.1562 18.8127H26.0625L20.2031 33.9767H18.5977Z" fill="#A91426"/>
</svg>
