<svg width="72" height="48" viewBox="0 0 72 48" fill="none" xmlns="http://www.w3.org/2000/svg">
<path d="M13.7346 12.8594C13.7346 14.5938 13.1409 15.9297 11.9534 16.8672C10.7737 17.7969 9.08226 18.2617 6.87913 18.2617H4.86351V25H2.87132V7.86719H7.31273C11.594 7.86719 13.7346 9.53125 13.7346 12.8594ZM4.86351 16.5508H6.65648C8.4221 16.5508 9.69944 16.2656 10.4885 15.6953C11.2776 15.125 11.6721 14.2109 11.6721 12.9531C11.6721 11.8203 11.301 10.9766 10.5588 10.4219C9.81663 9.86719 8.66038 9.58984 7.09007 9.58984H4.86351V16.5508Z" fill="#A91426"/>
<path d="M19.489 25.1562C18.2234 25.1562 17.2234 24.7708 16.489 24C15.7598 23.2292 15.3952 22.1589 15.3952 20.7891C15.3952 19.4089 15.7338 18.3125 16.4109 17.5C17.0931 16.6875 18.0072 16.2812 19.153 16.2812C20.226 16.2812 21.0749 16.6354 21.6999 17.3438C22.3249 18.0469 22.6374 18.9766 22.6374 20.1328V20.9531H16.739C16.765 21.9583 17.0176 22.7214 17.4968 23.2422C17.9812 23.763 18.6609 24.0234 19.5359 24.0234C20.4577 24.0234 21.3692 23.8307 22.2702 23.4453V24.6016C21.8119 24.7995 21.377 24.9401 20.9655 25.0234C20.5593 25.112 20.0671 25.1562 19.489 25.1562ZM19.1374 17.3672C18.4499 17.3672 17.9004 17.5911 17.489 18.0391C17.0827 18.487 16.8431 19.1068 16.7702 19.8984H21.2468C21.2468 19.0807 21.0645 18.4557 20.6999 18.0234C20.3353 17.5859 19.8145 17.3672 19.1374 17.3672ZM28.7624 16.2812C29.1426 16.2812 29.4838 16.3125 29.7859 16.375L29.6062 17.5781C29.252 17.5 28.9395 17.4609 28.6687 17.4609C27.976 17.4609 27.3822 17.7422 26.8874 18.3047C26.3978 18.8672 26.153 19.5677 26.153 20.4062V25H24.8562V16.4375H25.9265L26.0749 18.0234H26.1374C26.4551 17.4661 26.8379 17.0365 27.2859 16.7344C27.7338 16.4323 28.226 16.2812 28.7624 16.2812ZM36.9109 22.6641C36.9109 23.4609 36.614 24.0755 36.0202 24.5078C35.4265 24.9401 34.5931 25.1562 33.5202 25.1562C32.3848 25.1562 31.4994 24.9766 30.864 24.6172V23.4141C31.2754 23.6224 31.7155 23.7865 32.1843 23.9062C32.6582 24.026 33.114 24.0859 33.5515 24.0859C34.2286 24.0859 34.7494 23.9792 35.114 23.7656C35.4786 23.5469 35.6609 23.2161 35.6609 22.7734C35.6609 22.4401 35.515 22.1562 35.2234 21.9219C34.9369 21.6823 34.3744 21.401 33.5359 21.0781C32.739 20.7812 32.1713 20.5234 31.8327 20.3047C31.4994 20.0807 31.2494 19.8281 31.0827 19.5469C30.9213 19.2656 30.8405 18.9297 30.8405 18.5391C30.8405 17.8411 31.1244 17.2917 31.6921 16.8906C32.2598 16.4844 33.0385 16.2812 34.028 16.2812C34.9499 16.2812 35.851 16.4688 36.7312 16.8438L36.2702 17.8984C35.4109 17.5443 34.6322 17.3672 33.9343 17.3672C33.3197 17.3672 32.8562 17.4635 32.5437 17.6562C32.2312 17.849 32.0749 18.1146 32.0749 18.4531C32.0749 18.6823 32.1322 18.8776 32.2468 19.0391C32.3666 19.2005 32.5567 19.3542 32.8171 19.5C33.0775 19.6458 33.5775 19.8568 34.3171 20.1328C35.3327 20.5026 36.0176 20.875 36.3718 21.25C36.7312 21.625 36.9109 22.0964 36.9109 22.6641ZM46.4187 20.7109C46.4187 22.1068 46.0671 23.1979 45.364 23.9844C44.6609 24.7656 43.6895 25.1562 42.4499 25.1562C41.6843 25.1562 41.0046 24.9766 40.4109 24.6172C39.8171 24.2578 39.3588 23.7422 39.0359 23.0703C38.7129 22.3984 38.5515 21.612 38.5515 20.7109C38.5515 19.3151 38.9004 18.2292 39.5984 17.4531C40.2963 16.6719 41.265 16.2812 42.5046 16.2812C43.7025 16.2812 44.653 16.6797 45.3562 17.4766C46.0645 18.2734 46.4187 19.3516 46.4187 20.7109ZM39.8952 20.7109C39.8952 21.8047 40.114 22.638 40.5515 23.2109C40.989 23.7839 41.6322 24.0703 42.4812 24.0703C43.3301 24.0703 43.9734 23.7865 44.4109 23.2188C44.8536 22.6458 45.0749 21.8099 45.0749 20.7109C45.0749 19.6224 44.8536 18.7969 44.4109 18.2344C43.9734 17.6667 43.3249 17.3828 42.4655 17.3828C41.6166 17.3828 40.976 17.6615 40.5437 18.2188C40.1114 18.776 39.8952 19.6068 39.8952 20.7109ZM54.5593 25V19.4609C54.5593 18.763 54.4004 18.2422 54.0827 17.8984C53.765 17.5547 53.2676 17.3828 52.5905 17.3828C51.6947 17.3828 51.0385 17.625 50.6218 18.1094C50.2051 18.5938 49.9968 19.3932 49.9968 20.5078V25H48.6999V16.4375H49.7546L49.9655 17.6094H50.028C50.2937 17.1875 50.6661 16.862 51.1452 16.6328C51.6244 16.3984 52.1582 16.2812 52.7468 16.2812C53.778 16.2812 54.5541 16.5312 55.0749 17.0312C55.5957 17.526 55.8562 18.3203 55.8562 19.4141V25H54.5593ZM63.7937 25L63.5359 23.7812H63.4734C63.0463 24.3177 62.6192 24.6823 62.1921 24.875C61.7702 25.0625 61.2416 25.1562 60.6062 25.1562C59.7572 25.1562 59.0905 24.9375 58.6062 24.5C58.127 24.0625 57.8874 23.4401 57.8874 22.6328C57.8874 20.9036 59.2702 19.9974 62.0359 19.9141L63.489 19.8672V19.3359C63.489 18.6641 63.3431 18.1693 63.0515 17.8516C62.765 17.5286 62.3041 17.3672 61.6687 17.3672C60.9551 17.3672 60.1478 17.5859 59.2468 18.0234L58.8484 17.0312C59.2702 16.8021 59.7312 16.6224 60.2312 16.4922C60.7364 16.362 61.2416 16.2969 61.7468 16.2969C62.7676 16.2969 63.5228 16.5234 64.0124 16.9766C64.5072 17.4297 64.7546 18.1562 64.7546 19.1562V25H63.7937ZM60.864 24.0859C61.6713 24.0859 62.3041 23.8646 62.7624 23.4219C63.226 22.9792 63.4577 22.3594 63.4577 21.5625V20.7891L62.1609 20.8438C61.1296 20.8802 60.3848 21.0417 59.9265 21.3281C59.4734 21.6094 59.2468 22.0495 59.2468 22.6484C59.2468 23.1172 59.3874 23.474 59.6687 23.7188C59.9551 23.9635 60.3536 24.0859 60.864 24.0859ZM68.7312 25H67.4343V12.8438H68.7312V25Z" fill="#707070"/>
<path d="M15.312 40.6735L9.49946 25.486H9.40571C9.51509 26.6891 9.56977 28.1188 9.56977 29.775V40.6735H7.72993V23.5406H10.7299L16.1557 37.6735H16.2495L21.7221 23.5406H24.6987V40.6735H22.7065V29.6344C22.7065 28.3688 22.7612 26.9938 22.8706 25.5094H22.7768L16.9174 40.6735H15.312Z" fill="#A91426"/>
<path d="M32.0463 40.8297C30.7807 40.8297 29.7807 40.4443 29.0463 39.6735C28.3172 38.9026 27.9526 37.8323 27.9526 36.4625C27.9526 35.0823 28.2911 33.986 28.9682 33.1735C29.6505 32.361 30.5646 31.9547 31.7104 31.9547C32.7833 31.9547 33.6323 32.3089 34.2573 33.0172C34.8823 33.7203 35.1948 34.65 35.1948 35.8063V36.6266H29.2963C29.3224 37.6318 29.575 38.3948 30.0541 38.9156C30.5385 39.4365 31.2182 39.6969 32.0932 39.6969C33.0151 39.6969 33.9265 39.5042 34.8276 39.1188V40.275C34.3693 40.4729 33.9344 40.6136 33.5229 40.6969C33.1166 40.7854 32.6245 40.8297 32.0463 40.8297ZM31.6948 33.0406C31.0073 33.0406 30.4578 33.2646 30.0463 33.7125C29.6401 34.1604 29.4005 34.7802 29.3276 35.5719H33.8041C33.8041 34.7542 33.6219 34.1292 33.2573 33.6969C32.8927 33.2594 32.3719 33.0406 31.6948 33.0406ZM43.2729 40.6735V35.1344C43.2729 34.4365 43.114 33.9156 42.7963 33.5719C42.4786 33.2281 41.9812 33.0563 41.3041 33.0563C40.4083 33.0563 39.7521 33.2985 39.3354 33.7828C38.9187 34.2672 38.7104 35.0667 38.7104 36.1813V40.6735H37.4135V32.111H38.4682L38.6791 33.2828H38.7416C39.0073 32.861 39.3797 32.5354 39.8588 32.3063C40.338 32.0719 40.8719 31.9547 41.4604 31.9547C42.4916 31.9547 43.2677 32.2047 43.7885 32.7047C44.3094 33.1995 44.5698 33.9938 44.5698 35.0875V40.6735H43.2729ZM50.0073 39.7594C50.2364 39.7594 50.4578 39.7438 50.6713 39.7125C50.8849 39.6761 51.0541 39.6396 51.1791 39.6031V40.5953C51.0385 40.663 50.8302 40.7177 50.5541 40.7594C50.2833 40.8063 50.0385 40.8297 49.8198 40.8297C48.1635 40.8297 47.3354 39.9573 47.3354 38.2125V33.1188H46.1088V32.4938L47.3354 31.9547L47.8823 30.1266H48.6323V32.111H51.1166V33.1188H48.6323V38.1578C48.6323 38.6735 48.7547 39.0693 48.9995 39.3453C49.2443 39.6214 49.5802 39.7594 50.0073 39.7594ZM60.2885 36.3844C60.2885 37.7802 59.937 38.8714 59.2338 39.6578C58.5307 40.4391 57.5594 40.8297 56.3198 40.8297C55.5541 40.8297 54.8745 40.65 54.2807 40.2906C53.687 39.9313 53.2286 39.4156 52.9057 38.7438C52.5828 38.0719 52.4213 37.2854 52.4213 36.3844C52.4213 34.9886 52.7703 33.9026 53.4682 33.1266C54.1661 32.3453 55.1349 31.9547 56.3745 31.9547C57.5724 31.9547 58.5229 32.3531 59.226 33.15C59.9344 33.9469 60.2885 35.025 60.2885 36.3844ZM53.7651 36.3844C53.7651 37.4781 53.9838 38.3115 54.4213 38.8844C54.8588 39.4573 55.5021 39.7438 56.351 39.7438C57.2 39.7438 57.8432 39.4599 58.2807 38.8922C58.7234 38.3193 58.9448 37.4834 58.9448 36.3844C58.9448 35.2959 58.7234 34.4703 58.2807 33.9078C57.8432 33.3401 57.1948 33.0563 56.3354 33.0563C55.4864 33.0563 54.8458 33.3349 54.4135 33.8922C53.9812 34.4495 53.7651 35.2802 53.7651 36.3844ZM66.476 31.9547C66.8562 31.9547 67.1974 31.986 67.4995 32.0485L67.3198 33.2516C66.9656 33.1735 66.6531 33.1344 66.3823 33.1344C65.6896 33.1344 65.0958 33.4156 64.601 33.9781C64.1114 34.5406 63.8666 35.2412 63.8666 36.0797V40.6735H62.5698V32.111H63.6401L63.7885 33.6969H63.851C64.1687 33.1396 64.5515 32.7099 64.9995 32.4078C65.4474 32.1058 65.9396 31.9547 66.476 31.9547Z" fill="#707070"/>
<path d="M25.6758 30.9141L13.8281 25.6523V23.6367L25.6758 17.707V21.1875L18.4102 24.5039L25.6758 27.457V30.9141ZM32.7656 33H28.1836V19.7227H32.7656V33ZM28.0664 16.418C28.0664 15.7305 28.2578 15.2188 28.6406 14.8828C29.0234 14.5469 29.6406 14.3789 30.4922 14.3789C31.3438 14.3789 31.9648 14.5508 32.3555 14.8945C32.7461 15.2383 32.9414 15.7461 32.9414 16.418C32.9414 17.7617 32.125 18.4336 30.4922 18.4336C28.875 18.4336 28.0664 17.7617 28.0664 16.418ZM42.4688 29.6133C43.0859 29.6133 43.8242 29.4609 44.6836 29.1562V32.4961C44.0664 32.7617 43.4766 32.9492 42.9141 33.0586C42.3594 33.1758 41.707 33.2344 40.957 33.2344C39.418 33.2344 38.3086 32.8594 37.6289 32.1094C36.9492 31.3516 36.6094 30.1914 36.6094 28.6289V23.1562H35.0039V21.293L37.043 19.8516L38.2266 17.0625H41.2266V19.7227H44.4844V23.1562H41.2266V28.3242C41.2266 29.1836 41.6406 29.6133 42.4688 29.6133ZM46.2656 27.457L53.5312 24.5039L46.2656 21.1875V17.707L58.1133 23.6367V25.6523L46.2656 30.9141V27.457Z" fill="black" fill-opacity="0.05"/>
</svg>
